<svg xmlns="http://www.w3.org/2000/svg" width="96" height="96" viewBox="0 0 96 96" version="1.1"><path d="M 16 53 L 16 80 48 80 L 80 80 80 53 L 80 26 48 26 L 16 26 16 53 M 30 46.432 C 30 48.217, 30.872 49.400, 33 50.500 C 34.650 51.353, 36 52.478, 36 53 C 36 53.522, 34.650 54.647, 33 55.500 C 30.906 56.583, 30 57.791, 30 59.499 L 30 61.947 35.750 58.570 C 41.529 55.175, 43.318 52.257, 40.798 50.335 C 40.084 49.790, 37.362 48.123, 34.750 46.630 L 30 43.916 30 46.432 M 46 60 C 46 61.867, 46.667 62, 56 62 C 65.333 62, 66 61.867, 66 60 C 66 58.133, 65.333 58, 56 58 C 46.667 58, 46 58.133, 46 60" stroke="none" fill="#24343c" fill-rule="evenodd"/><path d="M 12 48 L 12 84 48 84 L 84 84 84 48 L 84 12 48 12 L 12 12 12 48 M 16 53 L 16 80 48 80 L 80 80 80 53 L 80 26 48 26 L 16 26 16 53 M 30 46.432 C 30 48.217, 30.872 49.400, 33 50.500 C 34.650 51.353, 36 52.478, 36 53 C 36 53.522, 34.650 54.647, 33 55.500 C 30.906 56.583, 30 57.791, 30 59.499 L 30 61.947 35.750 58.570 C 41.529 55.175, 43.318 52.257, 40.798 50.335 C 40.084 49.790, 37.362 48.123, 34.750 46.630 L 30 43.916 30 46.432 M 46 60 C 46 61.867, 46.667 62, 56 62 C 65.333 62, 66 61.867, 66 60 C 66 58.133, 65.333 58, 56 58 C 46.667 58, 46 58.133, 46 60" stroke="none" fill="#b9dddd" fill-rule="evenodd"/></svg>